<?xml version="1.0" standalone="no"?>
<!DOCTYPE svg PUBLIC "-//W3C//DTD SVG 20010904//EN"
 "http://www.w3.org/TR/2001/REC-SVG-20010904/DTD/svg10.dtd">
<svg version="1.0" xmlns="http://www.w3.org/2000/svg"
 width="96" height="96" viewBox="0 0 96 96"
 preserveAspectRatio="xMidYMid meet">
<metadata>
Stack Junkie Logo - Simple Placeholder
</metadata>
<g transform="translate(0,96) scale(0.1,-0.1)" fill="#000000" stroke="none">
<path d="M200 800 c-55 -10 -100 -45 -130 -100 -20 -37 -20 -43 -20 -220 0 -177 0 -183 20 -220 30 -55 75 -90 130 -100 37 -7 43 -7 220 -7 177 0 183 0 220 7 55 10 100 45 130 100 20 37 20 43 20 220 0 177 0 183 -20 220 -30 55 -75 90 -130 100 -37 7 -43 7 -220 6 -99 0 -194 -3 -220 -6z"/>
<text x="480" y="550" font-family="Arial, sans-serif" font-size="200" font-weight="bold" text-anchor="middle" fill="white">SJ</text>
</g>
</svg>
